<svg xmlns="http://www.w3.org/2000/svg" width="2925" height="811" viewBox="0 0 2925 811" version="1.1"><path d="M 200.745 54.701 L 168.990 109.500 270.745 110.037 C 361.212 110.515, 373.439 110.763, 380.961 112.278 C 411.698 118.465, 435.536 130.532, 454.500 149.504 C 473.594 168.606, 485.708 192.486, 491.649 222.738 C 493.136 230.311, 493.423 240.052, 493.760 294.500 C 494.178 361.952, 493.708 372.425, 489.481 389.882 C 476.424 443.806, 438.337 479.281, 381.262 490.678 C 373.240 492.280, 361.462 492.455, 241.750 492.749 L 111 493.070 111 353.035 C 111 274.617, 110.618 213, 110.133 213 C 109.656 213, 84.681 255.449, 54.633 307.330 L 0 401.661 0.017 477.580 C 0.036 561.228, 0.035 561.201, 6.199 573.787 C 10.281 582.122, 20.176 592.274, 28.500 596.666 C 41.429 603.487, 28.997 603.082, 215.242 602.752 L 383.500 602.454 396 600.196 C 435.641 593.036, 465.562 581.403, 495.500 561.512 C 501.550 557.492, 509.759 551.457, 513.742 548.102 C 517.725 544.746, 521.325 542.018, 521.742 542.040 C 522.159 542.062, 524.525 544.814, 527 548.154 C 536.852 561.451, 556.437 577.169, 574.419 586.211 C 592.114 595.108, 632.892 605.359, 635.833 601.650 C 637.158 599.978, 696.894 496.440, 697.610 494.573 C 698.150 493.166, 695.282 492.998, 670.357 492.983 C 640.579 492.964, 633.018 492.124, 624.193 487.851 C 613.992 482.913, 606.975 471.849, 605.058 457.678 C 604.349 452.433, 604 393.856, 604 279.928 L 604 110 762.250 109.967 L 920.500 109.934 952.160 54.967 L 983.820 0 762.160 0.024 C 613.490 0.041, 539.018 0.389, 536 1.081 C 521.043 4.510, 507.365 15.524, 500.143 29.954 C 497.864 34.507, 496 38.854, 496 39.616 C 496 41.536, 495.817 41.475, 488.768 37.196 C 458.875 19.051, 429.008 8.303, 391.804 2.305 C 383.038 0.891, 370.380 0.588, 307 0.273 L 232.500 -0.098 200.745 54.701 M 1038 157 L 1038 314 1132.250 313.999 C 1188.415 313.999, 1230.945 313.586, 1237.500 312.979 C 1310.413 306.222, 1358.275 275.188, 1379.954 220.615 C 1391.648 191.177, 1394.152 149.968, 1386.370 115 C 1371.699 49.074, 1320.270 8.989, 1240.144 1.029 C 1233.843 0.403, 1192.239 -0, 1133.894 -0 L 1038 0 1038 157 M 1694 1.115 C 1663.549 4.591, 1632.360 15.182, 1610.286 29.543 C 1576.637 51.434, 1556.762 80.802, 1548.747 120.476 C 1546.845 129.887, 1546.520 134.719, 1546.520 153.500 C 1546.520 178.549, 1548.150 189.579, 1554.610 208.228 C 1571.134 255.926, 1611.977 291.178, 1666 304.370 C 1715.150 316.371, 1770.281 310.976, 1811.797 290.102 C 1854.070 268.847, 1880.846 233.109, 1887.545 189 C 1888.339 183.775, 1888.991 173.088, 1888.994 165.250 L 1889 151 1821.500 151 L 1754 151 1754 170 L 1754 189 1798.079 189 L 1842.159 189 1841.472 192.250 C 1838.696 205.385, 1829.537 221.524, 1818.574 232.599 C 1805.869 245.433, 1791.541 253.711, 1771.277 259.922 C 1752.950 265.539, 1745.665 266.490, 1721 266.484 C 1695.997 266.477, 1687.453 265.367, 1670.276 259.894 C 1650.952 253.736, 1635.324 244.487, 1622.430 231.579 C 1608.826 217.961, 1600.756 203.583, 1595.203 183.074 C 1592.800 174.198, 1592.611 171.970, 1592.611 152.500 C 1592.611 132.892, 1592.789 130.837, 1595.287 121.500 C 1604.375 87.525, 1627.170 64.227, 1664.057 51.212 C 1696.813 39.654, 1740.247 39.007, 1780.364 49.478 C 1799.842 54.562, 1825.868 65.835, 1843.500 76.826 L 1851.500 81.813 1851.769 59.175 C 1852.084 32.703, 1853.948 36.497, 1836.035 27.145 C 1809.705 13.399, 1782.388 5.149, 1751.006 1.466 C 1737.509 -0.118, 1706.478 -0.309, 1694 1.115 M 2462.708 2.143 C 2460.502 5.662, 2293.968 308.920, 2293.333 310.576 C 2292.869 311.783, 2296.345 312, 2316.154 312 L 2339.523 312 2357.344 278.500 L 2375.165 245 2464.370 245 L 2553.575 245 2571.537 278.469 L 2589.500 311.939 2612.857 311.969 C 2634.691 311.998, 2636.171 311.886, 2635.562 310.250 C 2634.689 307.908, 2466.005 1.738, 2464.985 0.643 C 2464.546 0.172, 2463.521 0.847, 2462.708 2.143 M 2690 156 L 2690 312 2807.500 312 L 2925 312 2925 289.500 L 2925 267 2829 267 L 2733 267 2733 133.500 L 2733 0 2711.500 0 L 2690 0 2690 156 M 1445 157.500 L 1445 312 1468.500 312 L 1492 312 1492 157.500 L 1492 3 1468.500 3 L 1445 3 1445 157.500 M 1943 157.500 L 1943 312 1965.500 312 L 1988 312 1988 157.500 L 1988 3 1965.500 3 L 1943 3 1943 157.500 M 2040 25.500 L 2040 48 2100.500 48 L 2161 48 2161 180 L 2161 312 2182.500 312 L 2204 312 2204 180 L 2204 48 2264 48 L 2324 48 2324 25.500 L 2324 3 2182 3 L 2040 3 2040 25.500 M 1082 157.454 L 1082 273 1148.250 272.984 C 1184.688 272.975, 1219.900 272.526, 1226.500 271.986 C 1301.299 265.862, 1343.988 224.082, 1343.988 157 C 1343.988 124.144, 1333.880 97.647, 1313.617 77.383 C 1300.910 64.677, 1287.355 56.693, 1267.133 50.006 C 1244.524 42.530, 1245.739 42.617, 1159.250 42.243 L 1082 41.908 1082 157.454 M 2460.740 86.198 C 2458.821 89.664, 2444.088 117.025, 2428.002 147 C 2411.915 176.975, 2398.557 201.838, 2398.317 202.250 C 2398.078 202.662, 2427.791 203, 2464.346 203 L 2530.810 203 2497.828 141.757 C 2479.688 108.073, 2464.708 80.375, 2464.538 80.205 C 2464.369 80.035, 2462.660 82.732, 2460.740 86.198" stroke="none" fill="#115072" fill-rule="evenodd"/><path d="M 918 692.406 C 909.907 694.228, 905.678 696.336, 900.409 701.174 C 888.636 711.983, 887.596 729.433, 898.099 739.950 C 902.385 744.242, 913.265 749.280, 923 751.480 C 956.798 759.120, 965.040 764.585, 964.978 779.315 C 964.866 805.683, 922.920 812.976, 896.261 791.262 L 890.762 786.783 888.300 789.246 L 885.837 791.708 892.169 796.494 C 905.527 806.592, 918.518 810.580, 935.365 809.756 C 947.834 809.147, 954.953 806.646, 961.836 800.457 C 970.504 792.664, 973.765 781.582, 970.596 770.682 C 967.206 759.020, 957.978 753.269, 932.743 747.091 C 904.700 740.224, 897.654 735.086, 897.654 721.500 C 897.654 714.179, 899.389 710.588, 905.546 705.168 C 911.752 699.706, 918.385 697.558, 929 697.575 C 939.448 697.591, 949.456 700.556, 958.254 706.242 L 964.352 710.184 966.154 707.842 C 967.145 706.554, 967.962 705.275, 967.969 705 C 967.976 704.725, 965.339 702.797, 962.107 700.715 C 949.271 692.445, 932.150 689.220, 918 692.406 M 1058.999 692.353 C 1042.672 695.872, 1032.005 707.600, 1032.032 722 C 1032.053 733.270, 1037.166 740.721, 1048.606 746.154 C 1051.965 747.749, 1061.775 750.819, 1070.406 752.977 C 1098.802 760.074, 1106.035 765.410, 1105.978 779.218 C 1105.868 805.681, 1063.978 813.024, 1037.261 791.262 L 1031.762 786.783 1029.300 789.246 L 1026.837 791.708 1033.169 796.494 C 1046.527 806.592, 1059.518 810.580, 1076.365 809.756 C 1090.063 809.087, 1096.608 806.552, 1104.170 798.990 C 1111.149 792.011, 1113.619 785.193, 1112.622 775.654 C 1111.047 760.586, 1102.338 754.208, 1073.500 747 C 1051.977 741.620, 1043.961 737.729, 1040.539 731 C 1036.216 722.500, 1038.374 712.547, 1046.031 705.662 C 1052.643 699.717, 1059.070 697.553, 1070 697.590 C 1080.680 697.626, 1090.252 700.424, 1098.968 706.058 L 1105.352 710.184 1107.154 707.842 C 1108.145 706.554, 1108.966 705.268, 1108.978 704.984 C 1108.990 704.700, 1106.758 703, 1104.017 701.206 C 1090.782 692.542, 1073.706 689.184, 1058.999 692.353 M 1532.601 692.534 C 1507.678 698.819, 1490.892 720.136, 1489.319 747.500 C 1488.262 765.879, 1494.060 781.239, 1506.909 794.095 C 1518.735 805.928, 1530.358 810.506, 1548 810.278 C 1570.183 809.991, 1588.119 798.677, 1597.995 778.740 C 1608.954 756.618, 1606.039 729.577, 1590.675 710.838 C 1585.065 703.995, 1574.818 696.982, 1566 693.950 C 1557.598 691.061, 1541.198 690.365, 1532.601 692.534 M 1691.949 692.757 C 1675.737 697.160, 1666.705 707.771, 1666.776 722.328 C 1666.857 738.816, 1677.382 747.055, 1706.500 753.425 C 1731.734 758.945, 1740.932 765.770, 1740.968 779 C 1740.982 784.152, 1737.491 792.373, 1733.879 795.692 C 1728.801 800.360, 1720.094 803.378, 1710.455 803.813 C 1696.011 804.464, 1684.332 800.703, 1672.134 791.473 L 1665.768 786.656 1663.880 789.078 L 1661.992 791.500 1666.246 795.251 C 1671.099 799.530, 1680.935 804.880, 1689 807.627 C 1693.307 809.094, 1697.429 809.500, 1708 809.500 C 1721.026 809.500, 1721.730 809.391, 1728.047 806.397 C 1741.394 800.073, 1747.222 791.651, 1747.222 778.691 C 1747.222 769.727, 1745.109 765.026, 1738.438 759.155 C 1733.123 754.476, 1722.574 750.099, 1710.500 747.563 C 1689.050 743.057, 1679.419 738.265, 1675.250 730.024 C 1672.364 724.319, 1672.412 718.806, 1675.402 712.383 C 1680.601 701.218, 1695.778 695.319, 1712.500 697.964 C 1719.386 699.053, 1731.324 703.959, 1737.101 708.072 L 1740.044 710.167 1741.942 707.834 C 1743.638 705.748, 1743.680 705.323, 1742.338 703.831 C 1740.148 701.396, 1728.368 695.450, 1722 693.564 C 1713.358 691.005, 1699.744 690.639, 1691.949 692.757 M 1832.786 692.798 C 1821.763 695.786, 1812.352 703.527, 1809.056 712.315 C 1807.194 717.280, 1807.754 728.861, 1810.090 733.685 C 1814.056 741.879, 1823.747 747.603, 1840.500 751.649 C 1860.098 756.381, 1862.982 757.232, 1868.706 759.968 C 1877.791 764.310, 1882.010 770.425, 1881.990 779.218 C 1881.979 784.146, 1878.387 792.469, 1874.879 795.692 C 1869.801 800.360, 1861.094 803.378, 1851.455 803.813 C 1837.053 804.462, 1825.326 800.700, 1813.237 791.551 L 1806.974 786.811 1805.018 789.155 L 1803.061 791.500 1807.281 795.172 C 1817.813 804.338, 1833.788 810.019, 1848.910 809.976 C 1862.434 809.937, 1870.843 807.250, 1878.825 800.418 C 1888.346 792.268, 1891.335 776.898, 1885.488 766.155 C 1880.310 756.642, 1871.239 752.161, 1844 745.662 C 1838.225 744.283, 1831.472 742.284, 1828.992 741.217 C 1815.605 735.460, 1810.725 723.964, 1816.635 712.105 C 1821.524 702.294, 1831.457 697.482, 1846.500 697.639 C 1857.195 697.750, 1865.343 700.180, 1874.829 706.086 L 1881.158 710.027 1882.999 707.763 C 1884.643 705.742, 1884.679 705.322, 1883.338 703.831 C 1881.148 701.396, 1869.368 695.450, 1863 693.564 C 1854.278 690.982, 1840.750 690.638, 1832.786 692.798 M 2870.999 692.353 C 2855.218 695.754, 2844.026 707.637, 2844.015 721 C 2844.009 729.198, 2845.666 733.729, 2850.599 739.003 C 2856.370 745.172, 2863.255 748.190, 2882.584 753.021 C 2910.788 760.070, 2918.035 765.435, 2917.978 779.218 C 2917.949 786.126, 2915.314 791.719, 2909.909 796.346 C 2895.260 808.885, 2863.965 805.354, 2846.767 789.222 C 2844.108 786.727, 2843.980 786.708, 2842.017 788.484 C 2840.908 789.488, 2840 790.840, 2840 791.487 C 2840 793.278, 2850.714 800.917, 2857.770 804.158 C 2867.777 808.755, 2875.972 810.266, 2888 809.735 C 2902.066 809.114, 2908.499 806.661, 2916.170 798.990 C 2920.705 794.455, 2922.199 792.124, 2923.551 787.474 C 2925.806 779.715, 2925.065 771.493, 2921.572 765.533 C 2916.508 756.892, 2908.329 752.703, 2885.300 746.956 C 2860.536 740.777, 2853.233 736.256, 2851.053 725.757 C 2848.744 714.632, 2855.956 703.576, 2868.280 699.351 C 2880.445 695.180, 2898.536 698.023, 2910.968 706.058 L 2917.352 710.184 2919.154 707.842 C 2920.145 706.554, 2920.966 705.268, 2920.978 704.984 C 2920.990 704.700, 2918.758 703, 2916.017 701.206 C 2902.782 692.542, 2885.706 689.184, 2870.999 692.353 M 1 751.012 L 1 809.024 38.750 808.762 L 76.500 808.500 76.816 805.750 L 77.133 803 42.066 803 L 7 803 7 748 L 7 693 4 693 L 1 693 1 751.012 M 138 751 L 138 809 141 809 L 144 809 144 751 L 144 693 141 693 L 138 693 138 751 M 216 750.937 L 216 809 218.991 809 L 221.982 809 222.241 756.956 L 222.500 704.911 245.880 738.456 C 258.739 756.905, 269.614 772, 270.048 772 C 270.481 772, 281.335 756.922, 294.168 738.494 L 317.500 704.988 317.759 756.994 L 318.018 809 321.009 809 L 324 809 324 751 L 324 693 321.059 693 C 318.322 693, 316.464 695.392, 294.309 727.426 C 281.214 746.361, 270.117 761.480, 269.650 761.026 C 269.182 760.571, 258.371 745.192, 245.626 726.850 C 223.976 695.690, 222.242 693.479, 219.227 693.187 L 216 692.873 216 750.937 M 396 751.063 L 396 809.127 399.250 808.813 L 402.500 808.500 402.758 750.750 L 403.016 693 399.508 693 L 396 693 396 751.063 M 464 696 L 464 699 484.500 699 L 505 699 505 754 L 505 809 508 809 L 511 809 511 754 L 511 699 531.500 699 L 552 699 552 696 L 552 693 508 693 L 464 693 464 696 M 612 751.012 L 612 809.024 649.750 808.762 L 687.500 808.500 687.816 805.750 L 688.133 803 653.066 803 L 618 803 618 748 L 618 693 615 693 L 612 693 612 751.012 M 747.242 750.750 L 747.500 808.500 788.750 808.761 L 830 809.022 830 806.011 L 830 803 792 803 L 754 803 754 778 L 754 753 788 753 L 822 753 822 750 L 822 747 788 747 L 754 747 754 723 L 754 699 791.500 699 L 829 699 829 696 L 829 693 787.992 693 L 746.984 693 747.242 750.750 M 1347 751 L 1347 809 1350 809 L 1353 809 1353 787.149 L 1353 765.298 1375.750 764.695 C 1405.431 763.909, 1413.497 761.718, 1423.174 751.809 C 1429.995 744.824, 1432.305 738.029, 1431.778 726.500 C 1431.293 715.905, 1428.620 709.599, 1422.123 703.730 C 1411.994 694.579, 1404.801 693.034, 1372.250 693.015 L 1347 693 1347 751 M 1954.242 750.750 L 1954.500 808.500 1957.750 808.813 L 1961 809.127 1961 751.063 L 1961 693 1957.492 693 L 1953.984 693 1954.242 750.750 M 2033 750.934 L 2033 809 2059.250 808.980 C 2095.117 808.953, 2103.801 807.526, 2113.721 800.028 C 2124.042 792.228, 2127.411 777.493, 2121.594 765.603 C 2118.463 759.203, 2113.275 754.701, 2105.291 751.456 L 2099.724 749.194 2102.849 747.578 C 2115.333 741.122, 2121.019 726.843, 2116.771 712.616 C 2114.973 706.594, 2106.943 698.821, 2099.500 695.899 C 2093.750 693.641, 2092.241 693.529, 2063.250 693.206 L 2033 692.868 2033 750.934 M 2190 751.063 L 2190 809.127 2193.250 808.813 L 2196.500 808.500 2196.758 750.750 L 2197.016 693 2193.508 693 L 2190 693 2190 751.063 M 2269 751 L 2269 809 2306.500 809 L 2344 809 2344 806 L 2344 803 2309.500 803 L 2275 803 2275 748 L 2275 693 2272 693 L 2269 693 2269 751 M 2405.242 750.750 L 2405.500 808.500 2408.750 808.813 L 2412 809.127 2412 751.063 L 2412 693 2408.492 693 L 2404.984 693 2405.242 750.750 M 2473 696 L 2473 699 2493.500 699 L 2514 699 2514 754 L 2514 809 2517 809 L 2520 809 2520 754 L 2520 699 2540.500 699 L 2561 699 2561 696 L 2561 693 2517 693 L 2473 693 2473 696 M 2622 751.063 L 2622 809.127 2625.250 808.813 L 2628.500 808.500 2628.758 750.750 L 2629.016 693 2625.508 693 L 2622 693 2622 751.063 M 2700.242 750.750 L 2700.500 808.500 2741.750 808.761 L 2783 809.022 2783 806.011 L 2783 803 2745 803 L 2707 803 2707 778 L 2707 753 2741 753 L 2775 753 2775 750 L 2775 747 2741 747 L 2707 747 2707 723 L 2707 699 2744.500 699 L 2782 699 2782 696 L 2782 693 2740.992 693 L 2699.984 693 2700.242 750.750 M 1534.275 698.539 C 1501.874 707.266, 1486.272 745.015, 1502.048 776.515 C 1515.472 803.318, 1549.351 812.499, 1574.606 796.176 C 1592.355 784.704, 1601.303 761.250, 1596.527 738.713 C 1590.364 709.625, 1561.727 691.145, 1534.275 698.539 M 1353 728.421 L 1353 758 1374.290 758 C 1389.958 758, 1397.096 757.605, 1401.320 756.505 C 1417.488 752.294, 1425.353 743.140, 1425.415 728.464 C 1425.469 715.462, 1419.421 707.099, 1406.145 701.821 C 1400.970 699.764, 1398.523 699.546, 1376.750 699.209 L 1353 698.841 1353 728.421 M 2039 723 L 2039 747 2063.395 747 C 2085.194 747, 2088.498 746.781, 2094.453 744.942 C 2103.158 742.253, 2108.264 737.340, 2110.560 729.443 C 2114.526 715.799, 2107.373 704.320, 2092.540 700.525 C 2088.019 699.368, 2080.836 699, 2062.790 699 L 2039 699 2039 723 M 2039 777.918 L 2039 803 2060.250 802.992 C 2085.669 802.983, 2096.335 801.916, 2103.336 798.683 C 2113.158 794.146, 2117.434 787.870, 2117.429 778 C 2117.425 769.937, 2114.704 764.247, 2108.809 759.977 C 2100.944 754.279, 2097.244 753.687, 2066.750 753.241 L 2039 752.835 2039 777.918" stroke="none" fill="#1d7a85" fill-rule="evenodd"/><path d="M 658 301.500 L 658 357 717.750 356.985 L 777.500 356.970 809 302.459 C 826.325 272.477, 840.650 247.509, 840.833 246.973 C 841.048 246.347, 808.524 246, 749.583 246 L 658 246 658 301.500 M 1041 479.500 L 1041 603 1160.500 603 L 1280 603 1280 597 L 1280 591 1168.500 591 L 1057 591 1057 535 L 1057 479 1151 479 L 1245 479 1245 473 L 1245 467 1151 467 L 1057 467 1057 417.500 L 1057 368 1168.500 368 L 1280 368 1280 362 L 1280 356 1160.500 356 L 1041 356 1041 479.500 M 2270 357.091 C 2194.925 360.830, 2140.300 387.468, 2119.464 430.500 C 2105.855 458.604, 2105.855 496.766, 2119.462 525.691 C 2135.167 559.073, 2169.267 583.506, 2216 594.860 C 2274.568 609.089, 2345.131 603.459, 2390.184 580.962 C 2421.248 565.449, 2440.583 544.916, 2449.001 518.500 C 2450.658 513.301, 2451.364 508.091, 2451.746 498.250 L 2452.261 485 2397.130 485 L 2342 485 2342 491 L 2342 497 2388.500 497 L 2435 497 2435 502.340 C 2435 514.780, 2427.848 532.620, 2418.095 544.508 C 2399.391 567.306, 2362.878 583.188, 2315.500 589.131 C 2302.557 590.755, 2265.337 590.746, 2252.500 589.116 C 2220.715 585.080, 2192.974 575.758, 2172.668 562.290 C 2150.481 547.574, 2134.650 524.795, 2129.330 499.931 C 2126.654 487.424, 2126.894 465.431, 2129.837 453.560 C 2134.122 436.273, 2143.517 420.221, 2156.262 408.414 C 2196.174 371.439, 2281.059 358.080, 2355.955 376.989 C 2378.426 382.662, 2403.485 392.852, 2418.353 402.363 C 2421.480 404.363, 2424.480 406, 2425.019 406 C 2425.574 406, 2426 402.719, 2426 398.455 L 2426 390.911 2411.070 383.599 C 2402.859 379.578, 2391.497 374.613, 2385.820 372.566 C 2363.269 364.432, 2333.834 358.547, 2310.419 357.491 C 2303.864 357.195, 2295.575 356.810, 2292 356.636 C 2288.425 356.462, 2278.525 356.667, 2270 357.091 M 2686.200 361.750 L 2686.500 367.500 2797.750 367.754 L 2909 368.009 2909 417.504 L 2909 467 2815.500 467 L 2722 467 2722 473 L 2722 479 2815.500 479 L 2909 479 2909 535 L 2909 591 2797.500 591 L 2686 591 2686 597 L 2686 603 2805.500 603 L 2925 603 2925 479.500 L 2925 356 2805.450 356 L 2685.900 356 2686.200 361.750 M 1547.246 479.699 L 1547.500 602.500 1630 602.500 C 1704.103 602.500, 1713.852 602.316, 1725.781 600.688 C 1766.546 595.124, 1798.687 581.161, 1821.369 559.162 C 1866.613 515.280, 1867.203 446.269, 1822.713 402.101 C 1799.897 379.450, 1770.849 366.054, 1730 359.343 C 1720.772 357.827, 1709.052 357.575, 1633.246 357.258 L 1546.992 356.898 1547.246 479.699 M 1564 480.057 L 1564 589.114 1640.250 588.731 C 1722.809 588.316, 1724.340 588.226, 1747.187 582.468 C 1793.602 570.769, 1824.801 542.833, 1834.603 504.194 C 1843.017 471.023, 1834.383 437.512, 1811 412.593 C 1794.960 395.498, 1770.965 382.550, 1743.500 376.168 C 1722.731 371.341, 1715.723 371, 1637.449 371 L 1564 371 1564 480.057" stroke="none" fill="#ec444c" fill-rule="evenodd"/></svg>