<svg xmlns="http://www.w3.org/2000/svg" width="512" height="512" viewBox="0 0 512 512" version="1.1">
  <circle cx="256" cy="256" r="256" fill="#f8f9fa" />
  <g transform="scale(0.8) translate(80, 80)">
    <path d="M 200.745 54.701 L 168.990 109.500 270.745 110.037 C 361.212 110.515, 373.439 110.763, 380.961 112.278 C 411.698 118.465, 435.536 130.532, 454.500 149.504 C 473.594 168.606, 485.708 192.486, 491.649 222.738 C 493.136 230.311, 493.423 240.052, 493.760 294.500 C 494.178 361.952, 493.708 372.425, 489.481 389.882 C 476.424 443.806, 438.337 479.281, 381.262 490.678 C 373.240 492.280, 361.462 492.455, 241.750 492.749 L 111 493.070 111 353.035 C 111 274.617, 110.618 213, 110.133 213 C 109.656 213, 84.681 255.449, 54.633 307.330 L 0 401.661 0.017 477.580 C 0.036 561.228, 0.035 561.201, 6.199 573.787 C 10.281 582.122, 20.176 592.274, 28.500 596.666 C 41.429 603.487, 28.997 603.082, 215.242 602.752 L 383.500 602.454 396 600.196 C 435.641 593.036, 465.562 581.403, 495.500 561.512 C 501.550 557.492, 509.759 551.457, 513.742 548.102 C 517.725 544.746, 521.325 542.018, 521.742 542.040 C 522.159 542.062, 524.525 544.814, 527 548.154 C 536.852 561.451, 556.437 577.169, 574.419 586.211 C 592.114 595.108, 632.892 605.359, 635.833 601.650 C 637.158 599.978, 696.894 496.440, 697.610 494.573 C 698.150 493.166, 695.282 492.998, 670.357 492.983 C 640.579 492.964, 633.018 492.124, 624.193 487.851 C 613.992 482.913, 606.975 471.849, 605.058 457.678 C 604.349 452.433, 604 393.856, 604 279.928 L 604 110 762.250 109.967 L 920.500 109.934 952.160 54.967 L 983.820 0 762.160 0.024 C 613.490 0.041, 539.018 0.389, 536 1.081 C 521.043 4.510, 507.365 15.524, 500.143 29.954 C 497.864 34.507, 496 38.854, 496 39.616 C 496 41.536, 495.817 41.475, 488.768 37.196 C 458.875 19.051, 429.008 8.303, 391.804 2.305 C 383.038 0.891, 370.380 0.588, 307 0.273 L 232.500 -0.098 200.745 54.701" stroke="none" fill="#115072" fill-rule="evenodd"/>
  </g>
</svg> 